<?xml version="1.0" encoding="utf-8"?><svg version="1.1" id="Layer_1" xmlns="http://www.w3.org/2000/svg" xmlns:xlink="http://www.w3.org/1999/xlink" x="0px" y="0px" viewBox="0 0 114.066 122.881" enable-background="new 0 0 114.066 122.881" xml:space="preserve"><g><path fill-rule="evenodd" clip-rule="evenodd" d="M 65.959 67.42 h 38.739 c 5.154 0 9.368 4.219 9.368 9.367 v 36.725 c 0 5.154 -4.221 9.369 -9.368 9.369 H 65.959 c -5.154 0 -9.369 -4.215 -9.369 -9.369 V 76.787 C 56.59 71.639 60.805 67.42 65.959 67.42 L 65.959 67.42 L 65.959 67.42 z z M 87.795 18.186 h 9.822 c 1.923 0 3.703 0.783 4.947 2.063 c 1.28 1.281 2.064 3.025 2.064 4.947 v 33.183 h -6.051 V 25.196 c 0 -0.285 -0.107 -0.533 -0.285 -0.711 c -0.177 -0.178 -0.426 -0.285 -0.711 -0.285 H 87.76 v 34.18 h -6.014 V 7.011 c 0 -0.285 -0.107 -0.534 -0.285 -0.711 c -0.178 -0.178 -0.428 -0.285 -0.712 -0.285 H 6.976 c -0.285 0 -0.535 0.106 -0.712 0.285 C 6.085 6.478 5.979 6.726 5.979 7.011 v 83.348 c 0 0.285 0.107 0.533 0.285 0.711 s 0.427 0.285 0.711 0.285 h 38.871 v 6.014 H 22.812 v 11.174 c 0 0.285 0.107 0.535 0.285 0.713 c 0.177 0.176 0.427 0.285 0.711 0.285 l 22.038 -0.002 v 6.014 H 23.844 c -1.922 0 -3.701 -0.783 -4.946 -2.064 c -1.282 -1.279 -2.064 -3.023 -2.064 -4.947 l 0 -11.172 H 7.011 c -1.922 0 -3.701 -0.785 -4.946 -2.064 C 0.783 94.023 0 92.279 0 90.357 V 7.011 C 0 5.089 0.783 3.31 2.064 2.064 C 3.345 0.783 5.089 0 7.011 0 h 73.774 c 1.921 0 3.701 0.783 4.947 2.063 c 1.28 1.282 2.063 3.025 2.063 4.947 V 18.186 L 87.795 18.186 L 87.795 18.186 L 87.795 18.186 z z z M 73.868 98.787 c -2.007 0 -3.634 -1.627 -3.634 -3.635 c 0 -2.006 1.627 -3.633 3.634 -3.633 h 7.823 v -7.83 c 0 -2.006 1.628 -3.633 3.634 -3.633 s 3.634 1.627 3.634 3.633 v 7.83 h 7.829 c 2.007 0 3.634 1.627 3.634 3.633 c 0 2.008 -1.627 3.635 -3.634 3.635 h -7.823 v 7.83 c 0 2.006 -1.627 3.633 -3.634 3.633 c -2.006 0 -3.634 -1.627 -3.634 -3.633 v -7.83 H 73.868 L 73.868 98.787 L 73.868 98.787 z"/></g></svg>
